<svg id="Layer_1" data-name="Layer 1" xmlns="http://www.w3.org/2000/svg" viewBox="0 0 128 128"><title>AUTUMN LEAF-2</title><path d="M107.846,36.117c-25.555-5.723-44.869-4.157-57.4,4.651C39.871,48.2,38.358,57.995,38.221,59.087a26.8,26.8,0,0,0,1.417,12.754,127.849,127.849,0,0,0-20.216,21.4,1.25,1.25,0,1,0,2.011,1.485A133.619,133.619,0,0,1,52.314,65.213l22.615,7.264a1.25,1.25,0,1,0,.765-2.38L54.919,63.425a146.051,146.051,0,0,1,26-14.1,1.25,1.25,0,0,0-.887-2.337,120.952,120.952,0,0,0-11.983,5.667l.639-7.908a1.25,1.25,0,1,0-2.492-.2l-.771,9.535c-4.119,2.288-8.843,5.144-13.838,8.6a1.233,1.233,0,0,0-.476.331c-3.076,2.146-6.245,4.52-9.43,7.124A24.406,24.406,0,0,1,40.7,59.4c.448-3.557,3.307-11.053,11.18-16.586,11.354-7.979,29.595-9.629,52.867-4.807-2.972,2.623-8.135,8.123-9.264,15.469-.23,1.5-.427,3.182-.635,4.967C93.684,68.428,92.087,82.1,81.908,88.432c-9.141,5.678-26.28,1.032-35.272-9.564a1.25,1.25,0,1,0-1.906,1.617c6.89,8.119,17.889,12.91,27.4,12.91a20.946,20.946,0,0,0,11.1-2.84c11.2-6.964,12.881-21.332,14.105-31.823.206-1.762.4-3.426.623-4.877C99.363,44.7,108.2,38.424,108.289,38.362a1.25,1.25,0,0,0-.442-2.245Z"/></svg>