<svg id="Layer_1" data-name="Layer 1" xmlns="http://www.w3.org/2000/svg" viewBox="0 0 128 128"><title>AUTUMN LEAF-12</title><path d="M107.5,70.66h-.04c-7.437,0-14.158-1.4-14.4-2.993-.325-2.187,7.266-7.09,14.56-10.3a1.25,1.25,0,0,0-.928-2.32c-7.155,2.587-15.675,4.143-16.952,2.335-1.039-1.47,3.223-7.437,7.7-11.874a1.25,1.25,0,0,0-1.567-1.932L72.791,58.773l9.036-31.727a1.25,1.25,0,0,0-2.345-.849c-2.879,6.5-7.375,13.109-9.475,12.614-2.858-.681-4.529-11.354-4.759-18.353a1.25,1.25,0,0,0-2.5,0c-.229,7-1.9,17.671-4.759,18.353-2.11.491-6.6-6.12-9.475-12.614a1.25,1.25,0,0,0-2.345.849l9.036,31.727L32.126,43.58a1.25,1.25,0,0,0-1.567,1.932c4.476,4.435,8.737,10.4,7.7,11.874-1.279,1.807-9.8.253-16.952-2.335a1.25,1.25,0,0,0-.928,2.32c7.294,3.206,14.885,8.108,14.559,10.3-.237,1.6-6.959,2.993-14.4,2.993H20.5a1.25,1.25,0,0,0-.155,2.49l30.562,3.826L38.16,85.113a1.25,1.25,0,0,0,.811,2.3L62.75,84.75V107.5a1.25,1.25,0,0,0,2.5,0V73.887l21.226-8.73a1.25,1.25,0,1,0-.951-2.312L65.25,71.183V51.417a1.25,1.25,0,0,0-2.5,0V71.183L42.476,62.844a1.25,1.25,0,0,0-.951,2.313l21.226,8.73v8.348L44.039,84.327l11.134-7.106a1.25,1.25,0,0,0-.518-2.294L31.673,72.049c2.992-.743,5.433-1.976,5.735-4.015.38-2.558-2.6-5.342-6.174-7.709,3.91.622,7.626.538,9.062-1.5,1.421-2.011-.036-5.257-2.141-8.287L56.645,62.711a1.25,1.25,0,0,0,1.89-1.387L51.506,36.642c2.151,2.926,4.662,5.171,7.066,4.6,2.848-.678,4.486-4.962,5.428-9.509.941,4.547,2.58,8.831,5.428,9.509,2.407.569,4.916-1.676,7.067-4.6l-7.03,24.683a1.25,1.25,0,0,0,1.89,1.387L89.844,50.542c-2.1,3.03-3.562,6.276-2.141,8.287,1.436,2.034,5.152,2.118,9.062,1.5-3.577,2.367-6.554,5.151-6.174,7.709.3,2.039,2.743,3.272,5.735,4.015L73.345,74.927a1.25,1.25,0,0,0-.518,2.294l11.134,7.106L72.477,83.043a1.25,1.25,0,0,0-.277,2.484l16.828,1.882a1.335,1.335,0,0,0,.14.008,1.25,1.25,0,0,0,.672-2.3L77.093,76.977l30.562-3.826a1.25,1.25,0,0,0-.155-2.49Z"/></svg>